<svg width="13" height="14" viewBox="0 0 13 14" fill="none" xmlns="http://www.w3.org/2000/svg">
<path d="M2.66789 9.79704C2.27737 10.1876 2.27737 10.8207 2.66789 11.2113C3.05842 11.6018 3.69158 11.6018 4.08211 11.2113L2.66789 9.79704ZM11.0041 3.87502C11.0041 3.32274 10.5564 2.87502 10.0041 2.87502L1.00413 2.87502C0.451841 2.87502 0.00412613 3.32274 0.00412613 3.87502C0.00412622 4.42731 0.451841 4.87502 1.00413 4.87502H9.00413V12.875C9.00413 13.4273 9.45184 13.875 10.0041 13.875C10.5564 13.875 11.0041 13.4273 11.0041 12.875L11.0041 3.87502ZM4.08211 11.2113L10.7112 4.58213L9.29702 3.16792L2.66789 9.79704L4.08211 11.2113Z" fill="aqua"/>
</svg>
